<?xml version="1.0" encoding="utf-8"?>
<!-- Generator: Adobe Illustrator 19.0.0, SVG Export Plug-In . SVG Version: 6.00 Build 0)  -->
<svg version="1.1" id="Layer_1" xmlns="http://www.w3.org/2000/svg" xmlns:xlink="http://www.w3.org/1999/xlink" x="0px" y="0px"
	 viewBox="0 0 512 512" style="enable-background:new 0 0 512 512;" xml:space="preserve">
<style type="text/css">
	.st0{fill:url(#XMLID_7_);}
	.st1{fill:url(#XMLID_8_);}
</style>
<g id="XMLID_2_">
	<linearGradient id="XMLID_7_" gradientUnits="userSpaceOnUse" x1="123.1687" y1="266.4645" x2="407.7604" y2="266.4645">
		<stop  offset="0" style="stop-color:#FFF33B"/>
		<stop  offset="0" style="stop-color:#FFE029"/>
		<stop  offset="0" style="stop-color:#FFD218"/>
		<stop  offset="0" style="stop-color:#FEC90F"/>
		<stop  offset="0" style="stop-color:#FDC70C"/>
		<stop  offset="0" style="stop-color:#F3903F"/>
		<stop  offset="0" style="stop-color:#64C5F0"/>
		<stop  offset="1" style="stop-color:#76C9B6"/>
	</linearGradient>
	<path id="XMLID_6_" class="st0" d="M365.7,232.8c-18.5-18.5-40.8-30.9-64.4-37.2l77.6-77.6c13.8-13.8,13.8-36.3,0-50.1l0,0
		c-13.8-13.8-36.3-13.8-50.1,0L168.6,228.1c-1.4,1.3-2.8,2.6-4.1,3.9c-55.3,55.3-55,145.4,0.8,201.2c55.8,55.8,145.9,56.1,201.2,0.8
		C421.8,378.7,421.5,288.6,365.7,232.8z M315.6,383.1c-27.7,27.7-72.5,27.7-100.2,0s-27.7-72.5,0-100.2c27.7-27.7,72.5-27.7,100.2,0
		C343.2,310.6,343.2,355.5,315.6,383.1z"/>
	<linearGradient id="XMLID_8_" gradientUnits="userSpaceOnUse" x1="127.1204" y1="124.7323" x2="278.0764" y2="124.7323">
		<stop  offset="0" style="stop-color:#FFF33B"/>
		<stop  offset="0" style="stop-color:#FFE029"/>
		<stop  offset="0" style="stop-color:#FFD218"/>
		<stop  offset="0" style="stop-color:#FEC90F"/>
		<stop  offset="0" style="stop-color:#FDC70C"/>
		<stop  offset="0" style="stop-color:#F3903F"/>
		<stop  offset="0" style="stop-color:#64C5F0"/>
		<stop  offset="1" style="stop-color:#76C9B6"/>
	</linearGradient>
	<path id="XMLID_1_" class="st1" d="M267.7,109.7l-80.2,80.2c-13.8,13.8-36.3,13.8-50.1,0l0,0c-13.8-13.8-13.8-36.3,0-50.1
		l80.2-80.2c13.8-13.8,36.3-13.8,50.1,0l0,0C281.5,73.4,281.5,95.9,267.7,109.7z"/>
</g>
</svg>
